<svg id="Capa_1" enable-background="new 0 0 512 512" height="512" viewBox="0 0 512 512" width="512" xmlns="http://www.w3.org/2000/svg" xmlns:xlink="http://www.w3.org/1999/xlink"><linearGradient id="SVGID_1_" gradientUnits="userSpaceOnUse" x1="256" x2="256" y1="512" y2="0"><stop offset="0" stop-color="#fd3a84"/><stop offset="1" stop-color="#ffa68d"/></linearGradient><linearGradient id="SVGID_2_" gradientUnits="userSpaceOnUse" x1="256" x2="256" y1="270" y2="120"><stop offset="0" stop-color="#ffc2cc"/><stop offset="1" stop-color="#fff2f4"/></linearGradient><g id="Location_2_"><g><g><path d="m256 0c-107.52 0-195 87.48-195 195 0 97.983 71.748 173.665 124.131 227.469 28.74 29.516 55.869 57.378 55.869 74.531 0 8.291 6.709 15 15 15s15-6.709 15-15c0-17.153 27.129-45.015 55.869-74.531 52.383-53.804 124.131-129.486 124.131-227.469 0-107.52-87.48-195-195-195z" fill="url(#SVGID_1_)"/></g></g><g><g><circle cx="256" cy="195" fill="url(#SVGID_2_)" r="75"/></g></g></g></svg>