<svg id="Capa_1" enable-background="new 0 0 512 512" height="512" viewBox="0 0 512 512" width="512" xmlns="http://www.w3.org/2000/svg" xmlns:xlink="http://www.w3.org/1999/xlink"><linearGradient id="SVGID_1_" gradientUnits="userSpaceOnUse" x1="256" x2="256" y1="512" y2="0"><stop offset="0" stop-color="#a93aff"/><stop offset="1" stop-color="#ff81ff"/></linearGradient><linearGradient id="SVGID_2_" gradientUnits="userSpaceOnUse" x1="256" x2="256" y1="451" y2="61"><stop offset="0" stop-color="#ffbef9"/><stop offset="1" stop-color="#fff1ff"/></linearGradient><g><g><g><circle cx="256" cy="256" fill="url(#SVGID_1_)" r="256"/></g></g><g><g><path d="m256 61c-107.52 0-195 87.48-195 195s87.48 195 195 195 195-87.48 195-195-87.48-195-195-195zm43.484 150h46.516c8.291 0 15 6.709 15 15s-6.709 15-15 15h-46.516c-6.969 34.191-37.255 60-73.484 60h-15l83.994 63.003c6.621 4.966 7.969 14.37 3.018 20.991-4.977 6.627-14.368 7.982-21.006 3.003l-120-90c-5.186-3.867-7.266-10.62-5.244-16.743 2.051-6.123 7.793-10.254 14.238-10.254h60c19.53 0 36.024-12.578 42.237-30h-102.237c-8.291 0-15-6.709-15-15s6.709-15 15-15h102.237c-6.213-17.422-22.707-30-42.237-30h-60c-8.291 0-15-6.709-15-15s6.709-15 15-15h180c8.291 0 15 6.709 15 15s-6.709 15-15 15h-60.379c6.632 8.763 11.591 18.847 13.863 30z" fill="url(#SVGID_2_)"/></g></g></g></svg>