<svg id="Capa_1" enable-background="new 0 0 512 512" height="512" viewBox="0 0 512 512" width="512" xmlns="http://www.w3.org/2000/svg" xmlns:xlink="http://www.w3.org/1999/xlink"><linearGradient id="SVGID_1_" gradientUnits="userSpaceOnUse" x1="256" x2="256" y1="481" y2="31"><stop offset="0" stop-color="#a93aff"/><stop offset="1" stop-color="#ff81ff"/></linearGradient><linearGradient id="SVGID_2_" gradientUnits="userSpaceOnUse" x1="256" x2="256" y1="361" y2="121"><stop offset="0" stop-color="#ffbef9"/><stop offset="1" stop-color="#fff1ff"/></linearGradient><g><g><g><path d="m257.5 226-257.5 21.599v218.401c0 8.401 6.599 15 15 15h482c8.401 0 15-6.599 15-15v-218.401zm-121.5-75c8.291 0 15-6.709 15-15 0-41.353 33.633-75 75-75h60c41.367 0 75 33.647 75 75 0 8.291 6.709 15 15 15s15-6.709 15-15c0-57.891-47.109-105-105-105h-60c-57.891 0-105 47.109-105 105 0 8.291 6.709 15 15 15z" fill="url(#SVGID_1_)"/></g></g><g><g><path d="m467 121h-422c-24.901 0-45 20.099-45 45v81.599l15 8.401s70.241 38.63 166 53.871v36.129c0 8.291 6.709 15 15 15h120c8.291 0 15-6.709 15-15v-36.196c95.859-15.308 166-53.804 166-53.804l15-8.401v-81.599c0-24.901-20.098-45-45-45z" fill="url(#SVGID_2_)"/></g></g></g></svg>